<svg xmlns="http://www.w3.org/2000/svg" xmlns:xlink="http://www.w3.org/1999/xlink" version="1.1" style="enable-background:new 0 0 511.996 511.996;" xml:space="preserve" width="511.996" height="511.996"><rect id="backgroundrect" width="100%" height="100%" x="0" y="0" fill="none" stroke="none"/>
















<g class="currentLayer" style=""><title>Layer 1</title><g id="svg_1" class="selected" fill-opacity="1" fill="#01bafd">
	<g id="svg_2" fill="#01bafd">
		<g id="svg_3" fill="#01bafd">
			<path d="M59.1629154086113,42.59400177001953 l196.26699829101562,25.600000381469727 c0.367000013589859,0.0430000014603138 0.734000027179718,0.06800000369548798 1.1009999513626099,0.06800000369548798 s0.734000027179718,-0.026000000536441803 1.1009999513626099,-0.06800000369548798 l186.63299560546875,-24.34600067138672 v29.628000259399414 c-5.349999904632568,6.015999794006348 -17.066999435424805,21.025999069213867 -17.066999435424805,37.452999114990234 c0,18.781999588012695 15.309000015258789,25.600000381469727 25.600000381469727,25.600000381469727 s25.600000381469727,-6.817999839782715 25.600000381469727,-25.600000381469727 c0,-16.427000045776367 -11.715999603271484,-31.437000274658203 -17.066999435424805,-37.452999114990234 V34.12900161743164 c0,-1.1260000467300415 -0.23899999260902405,-2.193000078201294 -0.6399999856948853,-3.183000087738037 c-0.14499999582767487,-0.3499999940395355 -0.3930000066757202,-0.6230000257492065 -0.5799999833106995,-0.9470000267028809 c-0.3330000042915344,-0.597000002861023 -0.6660000085830688,-1.1859999895095825 -1.1260000467300415,-1.680999994277954 c-0.29899999499320984,-0.3160000145435333 -0.6570000052452087,-0.5289999842643738 -0.9980000257492065,-0.7850000262260437 c-0.4860000014305115,-0.3930000066757202 -0.9639999866485596,-0.7680000066757202 -1.5269999504089355,-1.0410000085830688 c-0.4180000126361847,-0.20499999821186066 -0.8619999885559082,-0.28999999165534973 -1.3140000104904175,-0.4180000126361847 c-0.4180000126361847,-0.12800000607967377 -0.7940000295639038,-0.3499999940395355 -1.246000051498413,-0.4099999964237213 l-196.26699829101562,-25.600000381469727 c-0.734000027179718,-0.08500000089406967 -1.468000054359436,-0.08500000089406967 -2.2019999027252197,0 l-196.26699829101562,25.600000381469727 c-4.25,0.5550000071525574 -7.432000160217285,4.181000232696533 -7.432000160217285,8.46500015258789 C51.729916751384735,38.41299819946289 54.9129154086113,42.040000915527344 59.1629154086113,42.59400177001953 zM461.3299190402031,110.92900085449219 c0,6.809999942779541 -4.617000102996826,8.404999732971191 -8.532999992370605,8.532999992370605 c-3.9170000553131104,-0.12800000607967377 -8.532999992370605,-1.7239999771118164 -8.532999992370605,-8.532999992370605 c0,-7.083000183105469 4.3520002365112305,-14.984999656677246 8.532999992370605,-20.812999725341797 C456.97792929410934,95.94499969482422 461.3299190402031,103.84700012207031 461.3299190402031,110.92900085449219 zM256.5299159884453,17.131000518798828 l130.2949981689453,16.99799919128418 L256.5299159884453,51.12799835205078 L126.23491781949997,34.12900161743164 L256.5299159884453,17.131000518798828 z" fill="#01bafd" id="svg_4"/>
			<path d="M307.72991293668747,255.99600219726562 c17.23699951171875,0 31.393999099731445,-12.894000053405762 33.66400146484375,-29.524999618530273 l31.18899917602539,-23.381000518798828 c3.7720000743865967,-2.825000047683716 4.539999961853027,-8.175000190734863 1.7070000171661377,-11.946999549865723 c-2.825000047683716,-3.7720000743865967 -8.175000190734863,-4.547999858856201 -11.946999549865723,-1.7070000171661377 l-21.750999450683594,16.31599998474121 c-3.250999927520752,-10.402000427246094 -12.859999656677246,-18.02199935913086 -24.32900047302246,-18.02199935913086 h-34.132999420166016 c-14.11400032043457,0 -25.600000381469727,11.486000061035156 -25.600000381469727,25.600000381469727 c0,-14.11400032043457 -11.486000061035156,-25.600000381469727 -25.600000381469727,-25.600000381469727 h-34.132999420166016 c-11.468999862670898,0 -21.07699966430664,7.619999885559082 -24.32900047302246,18.02199935913086 l-21.750999450683594,-16.31599998474121 c-3.763000011444092,-2.825000047683716 -9.121999740600586,-2.056999921798706 -11.946999549865723,1.7070000171661377 c-2.8329999446868896,3.7720000743865967 -2.065000057220459,9.121999740600586 1.7070000171661377,11.946999549865723 l31.18899917602539,23.381000518798828 c2.2699999809265137,16.631000518798828 16.417999267578125,29.524999618530273 33.66400146484375,29.524999618530273 h17.066999435424805 c18.825000762939453,0 34.132999420166016,-15.309000015258789 34.132999420166016,-34.132999420166016 c0,18.825000762939453 15.309000015258789,34.132999420166016 34.132999420166016,34.132999420166016 H307.72991293668747 zM239.46291464567184,221.86300659179688 c0,9.411999702453613 -7.663000106811523,17.066999435424805 -17.066999435424805,17.066999435424805 h-17.066999435424805 c-9.411999702453613,0 -17.066999435424805,-7.6539998054504395 -17.066999435424805,-17.066999435424805 v-8.532999992370605 c0,-4.702000141143799 3.822999954223633,-8.532999992370605 8.532999992370605,-8.532999992370605 h34.132999420166016 c4.710000038146973,0 8.532999992370605,3.8310000896453857 8.532999992370605,8.532999992370605 V221.86300659179688 zM273.5969173312187,221.86300659179688 v-8.532999992370605 c0,-4.702000141143799 3.822999954223633,-8.532999992370605 8.532999992370605,-8.532999992370605 h34.132999420166016 c4.710000038146973,0 8.532999992370605,3.8310000896453857 8.532999992370605,8.532999992370605 v8.532999992370605 c0,9.411999702453613 -7.6539998054504395,17.066999435424805 -17.066999435424805,17.066999435424805 h-17.066999435424805 C281.25090903043747,238.9290008544922 273.5969173312187,231.27499389648438 273.5969173312187,221.86300659179688 z" fill="#01bafd" id="svg_5"/>
			<path d="M392.71392172574997,433.1050109863281 c-0.16200000047683716,-0.6060000061988831 -0.4180000126361847,-1.1519999504089355 -0.699999988079071,-1.715000033378601 c-0.16200000047683716,-0.29899999499320984 -0.19599999487400055,-0.6399999856948853 -0.3840000033378601,-0.9300000071525574 c-0.09399999678134918,-0.12800000607967377 -0.23000000417232513,-0.19599999487400055 -0.3240000009536743,-0.3240000009536743 c-0.3580000102519989,-0.4690000116825104 -0.8019999861717224,-0.8529999852180481 -1.2630000114440918,-1.246000051498413 c-0.4099999964237213,-0.375 -0.8109999895095825,-0.7419999837875366 -1.2970000505447388,-1.0160000324249268 c-0.14499999582767487,-0.09399999678134918 -0.23000000417232513,-0.23000000417232513 -0.3930000066757202,-0.3160000145435333 l-34.132999420166016,-17.058000564575195 c-2.747999906539917,-1.3739999532699585 -6.007999897003174,-1.1690000295639038 -8.550000190734863,0.5289999842643738 l-51.20899963378906,34.132999420166016 c-2.371999979019165,1.5789999961853027 -3.796999931335449,4.25 -3.796999931335449,7.099999904632568 v30.259000778198242 c-5.077000141143799,4.061999797821045 -17.54400062561035,12.406999588012695 -34.132999420166016,12.406999588012695 c-16.427000045776367,0 -29.01300048828125,-8.387999534606934 -34.132999420166016,-12.432999610900879 v-30.233999252319336 c0,-2.8499999046325684 -1.4249999523162842,-5.520999908447266 -3.796999931335449,-7.099999904632568 l-51.20000076293945,-34.132999420166016 c-2.5429999828338623,-1.6979999542236328 -5.802999973297119,-1.902999997138977 -8.550000190734863,-0.5289999842643738 l-34.132999420166016,17.058000564575195 c-0.15399999916553497,0.07699999958276749 -0.23899999260902405,0.21299999952316284 -0.375,0.29899999499320984 c-0.5120000243186951,0.28999999165534973 -0.9390000104904175,0.6740000247955322 -1.3739999532699585,1.0750000476837158 c-0.4269999861717224,0.37599998712539673 -0.8529999852180481,0.734000027179718 -1.1859999895095825,1.1779999732971191 c-0.10199999809265137,0.13699999451637268 -0.25600001215934753,0.21299999952316284 -0.3499999940395355,0.3499999940395355 c-0.20499999821186066,0.3070000112056732 -0.23899999260902405,0.6570000052452087 -0.4009999930858612,0.9810000061988831 c-0.26499998569488525,0.5379999876022339 -0.5210000276565552,1.0579999685287476 -0.6740000247955322,1.6380000114440918 c-0.13699999451637268,0.5379999876022339 -0.17100000381469727,1.0499999523162842 -0.20499999821186066,1.5959999561309814 c-0.03400000184774399,0.5379999876022339 -0.05999999865889549,1.0579999685287476 0.008999999612569809,1.6039999723434448 c0.06800000369548798,0.597000002861023 0.26499998569488525,1.1430000066757202 0.460999995470047,1.7070000171661377 c0.11900000274181366,0.3409999907016754 0.11100000143051147,0.699999988079071 0.27300000190734863,1.0240000486373901 c0.07699999958276749,0.15399999916553497 0.22200000286102295,0.24699999392032623 0.3070000112056732,0.3930000066757202 c0.28200000524520874,0.4950000047683716 0.6660000085830688,0.9129999876022339 1.0579999685287476,1.3480000495910645 c0.3840000033378601,0.4269999861717224 0.7419999837875366,0.8529999852180481 1.1859999895095825,1.1950000524520874 c0.13699999451637268,0.10199999809265137 0.21299999952316284,0.25600001215934753 0.3499999940395355,0.3499999940395355 l51.20000076293945,34.132999420166016 c1.4589999914169312,0.9729999899864197 3.1059999465942383,1.434000015258789 4.7270002365112305,1.434000015258789 c2.75600004196167,0 5.46999979019165,-1.3309999704360962 7.107999801635742,-3.796999931335449 c2.619999885559082,-3.924999952316284 1.562000036239624,-9.225000381469727 -2.364000082015991,-11.836000442504883 l-38.97200012207031,-25.975000381469727 l16.55500030517578,-8.277000427246094 l43.28099822998047,28.85099983215332 v29.56800079345703 c0,2.260999917984009 0.8960000276565552,4.436999797821045 2.5,6.0329999923706055 c0.8019999861717224,0.8019999861717224 19.899999618530273,19.566999435424805 48.70000076293945,19.566999435424805 s47.89799880981445,-18.764999389648438 48.70000076293945,-19.566999435424805 c1.5959999561309814,-1.5959999561309814 2.5,-3.7720000743865967 2.5,-6.0329999923706055 v-29.56800079345703 l43.290000915527344,-28.85099983215332 l16.54599952697754,8.269000053405762 l-38.97200012207031,25.983999252319336 c-3.924999952316284,2.6110000610351562 -4.982999801635742,7.909999847412109 -2.364000082015991,11.836000442504883 c1.6380000114440918,2.4660000801086426 4.3520002365112305,3.796999931335449 7.107999801635742,3.796999931335449 c1.621000051498413,0 3.2679998874664307,-0.460999995470047 4.7270002365112305,-1.434000015258789 l51.20000076293945,-34.132999420166016 c0.13699999451637268,-0.09399999678134918 0.20499999821186066,-0.23899999260902405 0.3330000042915344,-0.3330000042915344 c0.4779999852180481,-0.3580000102519989 0.8529999852180481,-0.8019999861717224 1.253999948501587,-1.253999948501587 c0.3580000102519989,-0.4269999861717224 0.7250000238418579,-0.8109999895095825 0.9980000257492065,-1.2890000343322754 c0.08500000089406967,-0.15399999916553497 0.23899999260902405,-0.24699999392032623 0.3160000145435333,-0.4099999964237213 c0.17900000512599945,-0.3499999940395355 0.17900000512599945,-0.7250000238418579 0.29899999499320984,-1.0839999914169312 c0.17900000512599945,-0.5379999876022339 0.367000013589859,-1.0499999523162842 0.4350000023841858,-1.6130000352859497 c0.07699999958276749,-0.5799999833106995 0.050999999046325684,-1.1260000467300415 0.008999999612569809,-1.6979999542236328 C392.87590903043747,434.10400390625 392.84990805387497,433.61700439453125 392.71392172574997,433.1050109863281 z" fill="#01bafd" id="svg_6"/>
			<path d="M427.80291098356247,404.23699951171875 c1.340000033378601,3.328000068664551 4.539999961853027,5.359000205993652 7.927000045776367,5.359000205993652 c1.0579999685287476,0 2.125,-0.19599999487400055 3.1659998893737793,-0.6140000224113464 c4.377999782562256,-1.7410000562667847 6.501999855041504,-6.706999778747559 4.76200008392334,-11.085000038146973 c-0.17100000381469727,-0.4099999964237213 -16.461000442504883,-41.71900177001953 -16.461000442504883,-82.16699981689453 v-68.26699829101562 c0,-72.7040023803711 -37.26499938964844,-92.16899871826172 -38.85200119018555,-92.96199798583984 c-2.63700008392334,-1.3229999542236328 -5.785999774932861,-1.1950000524520874 -8.293999671936035,0.367000013589859 c-2.5169999599456787,1.562000036239624 -4.052999973297119,4.301000118255615 -4.052999973297119,7.26200008392334 v34.132999420166016 c0,32.27299880981445 -24.69499969482422,98.56900024414062 -33.23699951171875,115.6520004272461 c-7.6539998054504395,15.317000389099121 -48.15399932861328,63.54800033569336 -86.22899627685547,63.54800033569336 s-78.57499694824219,-48.22999954223633 -86.23799896240234,-63.54800033569336 c-8.532999992370605,-17.083999633789062 -33.229000091552734,-83.37899780273438 -33.229000091552734,-115.6520004272461 v-34.132999420166016 c0,-2.9609999656677246 -1.5360000133514404,-5.699999809265137 -4.052999973297119,-7.26200008392334 s-5.6579999923706055,-1.690000057220459 -8.293999671936035,-0.367000013589859 c-1.5870000123977661,0.7940000295639038 -38.85200119018555,20.257999420166016 -38.85200119018555,92.96199798583984 v68.26699829101562 c0,40.448001861572266 -16.290000915527344,81.75800323486328 -16.461000442504883,82.16699981689453 c-1.7410000562667847,4.377999782562256 0.3840000033378601,9.343999862670898 4.76200008392334,11.085000038146973 c4.361000061035156,1.7410000562667847 9.343999862670898,-0.375 11.093000411987305,-4.744999885559082 c0.7170000076293945,-1.809000015258789 17.672000885009766,-44.698001861572266 17.672000885009766,-88.50800323486328 v-68.26699829101562 c0,-34.60300064086914 9.020000457763672,-54.707000732421875 17.066999435424805,-65.76599884033203 v14.565999984741211 c0,36.625 26.871000289916992,106.96499633789062 35.02899932861328,123.28099822998047 c10.385000228881836,20.770000457763672 55.83399963378906,72.98600006103516 101.50399780273438,72.98600006103516 s91.11900329589844,-52.215999603271484 101.49500274658203,-72.98600006103516 c8.166000366210938,-16.31599998474121 35.03799819946289,-86.65599822998047 35.03799819946289,-123.28099822998047 v-14.548999786376953 c8.064000129699707,11.067999839782715 17.066999435424805,31.163999557495117 17.066999435424805,65.7490005493164 v68.26699829101562 C410.12990683317184,359.53900146484375 427.0859004855156,402.4280090332031 427.80291098356247,404.23699951171875 z" fill="#01bafd" id="svg_7"/>
			<path d="M276.19890707731247,309.60198974609375 c-0.27300000190734863,0.24699999392032623 -6.706999778747559,6.126999855041504 -19.66900062561035,6.126999855041504 c-12.77400016784668,0 -19.208999633789062,-5.709000110626221 -19.652000427246094,-6.118000030517578 c-3.319000005722046,-3.250999927520752 -8.670000076293945,-3.2260000705718994 -11.980999946594238,0.08500000089406967 c-3.3369998931884766,3.3369998931884766 -3.3369998931884766,8.729999542236328 0,12.065999984741211 c1.1260000467300415,1.1260000467300415 11.604999542236328,11.034000396728516 31.632999420166016,11.034000396728516 s30.506999969482422,-9.906999588012695 31.632999420166016,-11.034000396728516 c3.2939999103546143,-3.2939999103546143 3.2850000858306885,-8.567000389099121 0.050999999046325684,-11.913000106811523 C284.96291464567184,306.5050048828125 279.60390585660934,306.4110107421875 276.19890707731247,309.60198974609375 z" fill="#01bafd" id="svg_8"/>
			<path d="M512.0859004855156,500.7659912109375 c-0.7509999871253967,-2.2699999809265137 -19.371000289916992,-55.85100173950195 -91.35800170898438,-73.84700012207031 c-4.573999881744385,-1.1610000133514404 -9.199000358581543,1.6380000114440918 -10.342000007629395,6.203999996185303 c-1.1430000066757202,4.573999881744385 1.6380000114440918,9.206999778747559 6.211999893188477,10.35099983215332 c62.52399826049805,15.633000373840332 78.66000366210938,60.808998107910156 79.30899810791016,62.68600082397461 c1.1859999895095825,3.5759999752044678 4.513999938964844,5.836999893188477 8.09000015258789,5.836999893188477 c0.8870000243186951,0 1.8009999990463257,-0.13699999451637268 2.697000026702881,-0.4350000023841858 C511.1649104952812,510.0669860839844 513.579888522625,505.2380065917969 512.0859004855156,500.7659912109375 z" fill="#01bafd" id="svg_9"/>
			<path d="M393.06292074918747,127.99600219726562 V68.26300048828125 c0,-4.710000038146973 -3.813999891281128,-8.532999992370605 -8.532999992370605,-8.532999992370605 s-8.532999992370605,3.822999954223633 -8.532999992370605,8.532999992370605 v54.21200180053711 c-14.11400032043457,5.98199987411499 -58.77799987792969,22.58799934387207 -119.46700286865234,22.58799934387207 s-105.35299682617188,-16.606000900268555 -119.46700286865234,-22.58799934387207 V68.26300048828125 c0,-4.710000038146973 -3.813999891281128,-8.532999992370605 -8.532999992370605,-8.532999992370605 s-8.532999992370605,3.822999954223633 -8.532999992370605,8.532999992370605 v59.733001708984375 c0,3.2339999675750732 1.8259999752044678,6.186999797821045 4.718999862670898,7.63700008392334 c2.1670000553131104,1.0750000476837158 53.89699935913086,26.496000289916992 131.81399536132812,26.496000289916992 s129.64700317382812,-25.42099952697754 131.81399536132812,-26.496000289916992 C391.2369014620781,134.18299865722656 393.06292074918747,131.22999572753906 393.06292074918747,127.99600219726562 z" fill="#01bafd" id="svg_10"/>
			<path d="M92.33191794157028,426.91900634765625 c-71.98699951171875,17.996999740600586 -90.60700225830078,71.5780029296875 -91.35800170898438,73.84700012207031 c-1.4930000305175781,4.4710001945495605 0.921999990940094,9.300999641418457 5.39300012588501,10.795000076293945 c0.8960000276565552,0.29899999499320984 1.8009999990463257,0.4350000023841858 2.697000026702881,0.4350000023841858 c3.575000047683716,0 6.9029998779296875,-2.260999917984009 8.09000015258789,-5.836999893188477 c0.16200000047683716,-0.4690000116825104 16.31599998474121,-46.94200134277344 79.30899810791016,-62.68600082397461 c4.573999881744385,-1.1430000066757202 7.355999946594238,-5.7769999504089355 6.211999893188477,-10.35099983215332 C101.53091543912888,428.5570068359375 96.896912753582,425.75799560546875 92.33191794157028,426.91900634765625 z" fill="#01bafd" id="svg_11"/>
		</g>
	</g>
</g><g id="svg_12">
</g><g id="svg_13">
</g><g id="svg_14">
</g><g id="svg_15">
</g><g id="svg_16">
</g><g id="svg_17">
</g><g id="svg_18">
</g><g id="svg_19">
</g><g id="svg_20">
</g><g id="svg_21">
</g><g id="svg_22">
</g><g id="svg_23">
</g><g id="svg_24">
</g><g id="svg_25">
</g><g id="svg_26">
</g></g></svg>