<svg xmlns="http://www.w3.org/2000/svg" xmlns:xlink="http://www.w3.org/1999/xlink" version="1.1" style="enable-background:new 0 0 512 512;" xml:space="preserve" width="512" height="512"><rect id="backgroundrect" width="100%" height="100%" x="0" y="0" fill="none" stroke="none"/>
















<g class="currentLayer" style=""><title>Layer 1</title><g id="svg_1" class="selected" fill-opacity="1" fill="#01bafd">
	<g id="svg_2" fill="#01bafd">
		<g id="svg_3" fill="#01bafd">
			<path d="M50.917999267578125,446.80284345149994 c1.1430000066757202,0 2.2950000762939453,-0.23000000417232513 3.4049999713897705,-0.7170000076293945 c27.22100067138672,-11.852999687194824 73.19000244140625,-18.02199935913086 136.67799377441406,-18.347000122070312 l6.160999774932861,12.33899974822998 c2.115999937057495,4.216000080108643 7.244999885559082,5.939000129699707 11.45199966430664,3.813999891281128 c4.215000152587891,-2.1080000400543213 5.931000232696533,-7.228000164031982 3.813999891281128,-11.442999839782715 l-8.524999618530273,-17.066999435424805 c-1.4509999752044678,-2.8929998874664307 -4.4029998779296875,-4.718999862670898 -7.63700008392334,-4.718999862670898 c-69.53800201416016,0 -118.2040023803711,6.4679999351501465 -148.76199340820312,19.77199935913086 c-4.317999839782715,1.8860000371932983 -6.289000034332275,6.9120001792907715 -4.4120001792907715,11.23799991607666 C44.49300003051758,444.88283002376556 47.625,446.80284345149994 50.917999267578125,446.80284345149994 z" fill="#01bafd" id="svg_4"/>
			<path d="M494.9330139160156,461.8638175725937 h-17.066999435424805 v-42.66699981689453 c0,-2.260999917984009 -0.9049999713897705,-4.436999797821045 -2.5,-6.0329999923706055 l-51.268001556396484,-51.2599983215332 c1.6039999723434448,-3.3369998931884766 2.569000005722046,-7.031000137329102 2.569000005722046,-10.973999977111816 c0,-14.11400032043457 -11.486000061035156,-25.600000381469727 -25.600000381469727,-25.600000381469727 c-14.11400032043457,0 -25.600000381469727,11.486000061035156 -25.600000381469727,25.600000381469727 s11.486000061035156,25.600000381469727 25.600000381469727,25.600000381469727 c3.941999912261963,0 7.629000186920166,-0.9639999866485596 10.96500015258789,-2.559999942779541 l48.768001556396484,48.75899887084961 V461.8638175725937 H17.066999435424805 C7.6539998054504395,461.8638175725937 0,469.51783978939056 0,478.9308341741562 v25.600000381469727 C0,509.24083173274994 3.822999954223633,513.0638297796249 8.532999992370605,513.0638297796249 s8.532999992370605,-3.822999954223633 8.532999992370605,-8.532999992370605 v-25.600000381469727 h477.86700439453125 v25.600000381469727 c0,4.710000038146973 3.813999891281128,8.532999992370605 8.532999992370605,8.532999992370605 c4.718999862670898,0 8.532999992370605,-3.822999954223633 8.532999992370605,-8.532999992370605 v-25.600000381469727 C512,469.51783978939056 504.3370056152344,461.8638175725937 494.9330139160156,461.8638175725937 zM401.0669860839844,359.4638236761093 c-4.710000038146973,0 -8.532999992370605,-3.8310000896453857 -8.532999992370605,-8.532999992370605 s3.822999954223633,-8.532999992370605 8.532999992370605,-8.532999992370605 s8.532999992370605,3.8310000896453857 8.532999992370605,8.532999992370605 S405.7770080566406,359.4638236761093 401.0669860839844,359.4638236761093 z" fill="#01bafd" id="svg_5"/>
			<path d="M121.83000183105469,256.3128226995468 c6.2210001945495605,16.195999145507812 26.80299949645996,68.41999816894531 41.73699951171875,90.81999969482422 l1.3480000495910645,2.0390000343322754 c10.956999778747559,16.61400032043457 29.285999298095703,44.42399978637695 91.08499908447266,44.42399978637695 c61.790000915527344,0 80.12799835205078,-27.809999465942383 91.08499908447266,-44.42399978637695 l1.3480000495910645,-2.0390000343322754 c14.932999610900879,-22.399999618530273 35.50699996948242,-74.6240005493164 41.73699951171875,-90.81999969482422 c11.145000457763672,-2.7730000019073486 19.43000030517578,-12.859999656677246 19.43000030517578,-24.849000930786133 v-34.132999420166016 c0,-11.126999855041504 -7.133999824523926,-20.617000579833984 -17.066999435424805,-24.141000747680664 V129.06382977962494 c0,-33.689998626708984 -17.740999221801758,-95.9229965209961 -83.36199951171875,-101.93099975585938 c-0.12800000607967377,-4.0279998779296875 -1.4589999914169312,-7.269999980926514 -2.944000005722046,-9.668000221252441 C297.8389892578125,3.9058297872543335 274.2869873046875,1.063829779624939 256,1.063829779624939 C104.15799713134766,1.063829779624939 102.4000015258789,144.67982709407806 102.4000015258789,146.13083112239838 c0,4.710000038146973 3.813999891281128,8.524999618530273 8.515999794006348,8.524999618530273 h0.017000000923871994 c4.702000141143799,0 8.515999794006348,-3.805999994277954 8.532999992370605,-8.515999794006348 c0.017000000923871994,-5.2220001220703125 1.937000036239624,-128.00900268554688 136.5330047607422,-128.00900268554688 c24.131999969482422,0 33.80099868774414,5.2220001220703125 35.71200180053711,8.310999870300293 c0.26499998569488525,0.4350000023841858 0.9900000095367432,1.6039999723434448 -0.6830000281333923,4.940999984741211 c-1.3229999542236328,2.6449999809265137 -1.1779999732971191,5.785999774932861 0.375,8.303000450134277 c1.562000036239624,2.509000062942505 4.301000118255615,4.045000076293945 7.26200008392334,4.045000076293945 c75.65699768066406,0 76.79100036621094,81.86000061035156 76.80000305175781,85.33300018310547 v51.20000076293945 c0,4.710000038146973 3.813999891281128,8.532999992370605 8.532999992370605,8.532999992370605 c4.710000038146973,0 8.532999992370605,3.8310000896453857 8.532999992370605,8.532999992370605 V231.4638236761093 c0,4.702000141143799 -3.822999954223633,8.532999992370605 -8.532999992370605,8.532999992370605 c-3.558000087738037,0 -6.741000175476074,2.2100000381469727 -7.995999813079834,5.538000106811523 c-0.24699999392032623,0.6740000247955322 -25.445999145507812,67.64399719238281 -41.770999908447266,92.1259994506836 l-1.3990000486373901,2.115999937057495 c-10.222999572753906,15.513999938964844 -24.235000610351562,36.75299835205078 -76.83399963378906,36.75299835205078 c-52.608001708984375,0 -66.61100006103516,-21.23900032043457 -76.83399963378906,-36.75299835205078 l-1.3990000486373901,-2.115999937057495 c-16.323999404907227,-24.48200035095215 -41.52299880981445,-91.4520034790039 -41.77899932861328,-92.1259994506836 c-1.246000051498413,-3.328000068664551 -4.428999900817871,-5.538000106811523 -7.986999988555908,-5.538000106811523 c-4.702000141143799,0 -8.532999992370605,-3.8310000896453857 -8.532999992370605,-8.532999992370605 v-34.132999420166016 c0,-2.312999963760376 0.921999990940094,-4.4120001792907715 2.4230000972747803,-5.947999954223633 c3.0980000495910645,6.954999923706055 9.420999526977539,13.210000038146973 20.045000076293945,14.267999649047852 l29.201000213623047,21.89699935913086 C173.41400146484375,244.16983258724213 187.5540008544922,257.06382977962494 204.8000030517578,257.06382977962494 h17.066999435424805 C240.6909942626953,257.06382977962494 256,241.75482404232025 256,222.9308341741562 C256,241.75482404232025 271.3089904785156,257.06382977962494 290.13299560546875,257.06382977962494 H307.20001220703125 c17.23699951171875,0 31.393999099731445,-12.894000053405762 33.66400146484375,-29.524999618530273 l31.18899917602539,-23.381000518798828 c3.7720000743865967,-2.825000047683716 4.539999961853027,-8.175000190734863 1.7070000171661377,-11.946999549865723 c-2.825000047683716,-3.7720000743865967 -8.175000190734863,-4.547999858856201 -11.946999549865723,-1.7070000171661377 l-21.750999450683594,16.31599998474121 c-3.250999927520752,-10.402000427246094 -12.859999656677246,-18.02199935913086 -24.32900047302246,-18.02199935913086 H281.6000061035156 c-14.11400032043457,0 -25.600000381469727,11.486000061035156 -25.600000381469727,25.600000381469727 c0,-14.11400032043457 -11.486000061035156,-25.600000381469727 -25.600000381469727,-25.600000381469727 h-34.132999420166016 c-11.460000038146973,0 -21.069000244140625,7.619999885559082 -24.327999114990234,18.02199935913086 l-16.281999588012695,-12.211000442504883 c6.716000080108643,-16.229999542236328 12.800000190734863,-40.23500061035156 14.52400016784668,-57.0880012512207 c26.89699935913086,-0.4779999852180481 104.71299743652344,-3.763000011444092 139.33200073242188,-25.3700008392334 c7.85099983215332,30.309999465942383 33.04999923706055,55.81700134277344 34.32099914550781,57.08000183105469 c3.3359999656677246,3.3359999656677246 8.729999542236328,3.3359999656677246 12.065999984741211,0 c3.3359999656677246,-3.3369998931884766 3.3359999656677246,-8.729999542236328 0,-12.065999984741211 c-0.3160000145435333,-0.3160000145435333 -31.632999420166016,-31.982999801635742 -31.632999420166016,-62.23400115966797 c0,-3.8310000896453857 -2.559999942779541,-7.202000141143799 -6.255000114440918,-8.22599983215332 c-3.677999973297119,-1.0240000486373901 -7.629000186920166,0.5460000038146973 -9.590999603271484,3.8310000896453857 c-12.425000190734863,20.69300079345703 -93.02200317382812,29.9950008392334 -146.28700256347656,29.9950008392334 c-4.710000038146973,0 -8.532999992370605,3.822999954223633 -8.532999992370605,8.532999992370605 c0,13.850000381469727 -6.545000076293945,41.51499938964844 -13.508000373840332,58.53900146484375 c-2.7219998836517334,-1.6380000114440918 -3.490000009536743,-4.692999839782715 -3.558000087738037,-7.339000225067139 c0,-4.710000038146973 -3.822999954223633,-8.532999992370605 -8.532999992370605,-8.532999992370605 c-14.11400032043457,0 -25.600000381469727,11.486000061035156 -25.600000381469727,25.600000381469727 V231.4638236761093 C102.4000015258789,243.4528373479843 110.68599700927734,253.53982770442963 121.83000183105469,256.3128226995468 zM273.0669860839844,214.39682233333588 c0,-4.702000141143799 3.822999954223633,-8.532999992370605 8.532999992370605,-8.532999992370605 h34.132999420166016 c4.710000038146973,0 8.532999992370605,3.8310000896453857 8.532999992370605,8.532999992370605 v8.532999992370605 c0,9.411999702453613 -7.6539998054504395,17.066999435424805 -17.066999435424805,17.066999435424805 h-17.066999435424805 c-9.411999702453613,0 -17.066999435424805,-7.6539998054504395 -17.066999435424805,-17.066999435424805 V214.39682233333588 zM187.73300170898438,214.39682233333588 c0,-4.702000141143799 3.8310000896453857,-8.532999992370605 8.532999992370605,-8.532999992370605 H230.39999389648438 c4.702000141143799,0 8.532999992370605,3.8310000896453857 8.532999992370605,8.532999992370605 v8.532999992370605 c0,9.411999702453613 -7.6539998054504395,17.066999435424805 -17.066999435424805,17.066999435424805 H204.8000030517578 c-9.411999702453613,0 -17.066999435424805,-7.6539998054504395 -17.066999435424805,-17.066999435424805 V214.39682233333588 z" fill="#01bafd" id="svg_6"/>
			<path d="M298.6579895019531,308.2898429632187 c0.008999999612569809,-4.702000141143799 -3.796999931335449,-8.532999992370605 -8.49899959564209,-8.559000015258789 c-0.16200000047683716,0 -15.420000076293945,-0.17100000381469727 -30.344999313354492,-7.63700008392334 c-2.3980000019073486,-1.1950000524520874 -5.230999946594238,-1.1950000524520874 -7.629000186920166,0 c-14.925000190734863,7.4670000076293945 -30.19099998474121,7.63700008392334 -30.319000244140625,7.63700008392334 c-4.710000038146973,0 -8.532999992370605,3.822999954223633 -8.532999992370605,8.532999992370605 s3.822999954223633,8.532999992370605 8.532999992370605,8.532999992370605 c0.7250000238418579,0 16.844999313354492,-0.09399999678134918 34.132999420166016,-7.6539998054504395 c17.280000686645508,7.559999942779541 33.40800094604492,7.6539998054504395 34.132999420166016,7.6539998054504395 C294.8349914550781,316.7968314886093 298.6409912109375,312.99083173274994 298.6579895019531,308.2898429632187 z" fill="#01bafd" id="svg_7"/>
			<path d="M315.7080078125,411.0138419866562 c-3.190999984741211,0.017000000923871994 -6.118000030517578,1.809000015258789 -7.578000068664551,4.658999919891357 l-8.532999992370605,16.70800018310547 c-2.1419999599456787,4.197999954223633 -0.4690000116825104,9.343999862670898 3.7209999561309814,11.486000061035156 c1.2369999885559082,0.6309999823570251 2.569000005722046,0.9300000071525574 3.874000072479248,0.9300000071525574 c3.1059999465942383,0 6.10099983215332,-1.6979999542236328 7.611999988555908,-4.651000022888184 l6.1529998779296875,-12.065999984741211 c46.643001556396484,0.12800000607967377 84.20700073242188,3.618000030517578 111.73500061035156,10.376999855041504 c4.591000080108643,1.1349999904632568 9.199000358581543,-1.6720000505447388 10.317000389099121,-6.245999813079834 c1.1260000467300415,-4.581999778747559 -1.6640000343322754,-9.199000358581543 -6.245999813079834,-10.324999809265137 C406.87799072265625,414.53782880306244 366.3450012207031,410.71483075618744 315.7080078125,411.0138419866562 z" fill="#01bafd" id="svg_8"/>
			<path d="M247.4669952392578,419.1968253850937 V436.2638419866562 c0,4.710000038146973 3.822999954223633,8.532999992370605 8.532999992370605,8.532999992370605 s8.532999992370605,-3.822999954223633 8.532999992370605,-8.532999992370605 v-17.066999435424805 c0,-4.710000038146973 -3.822999954223633,-8.532999992370605 -8.532999992370605,-8.532999992370605 S247.4669952392578,414.48683393001556 247.4669952392578,419.1968253850937 z" fill="#01bafd" id="svg_9"/>
			<path d="M247.4669952392578,325.33082807064056 c-4.710000038146973,0 -8.532999992370605,3.822999954223633 -8.532999992370605,8.532999992370605 c0,4.710000038146973 3.822999954223633,8.532999992370605 8.532999992370605,8.532999992370605 h17.066999435424805 c4.718999862670898,0 8.532999992370605,-3.822999954223633 8.532999992370605,-8.532999992370605 c0,-4.710000038146973 -3.813999891281128,-8.532999992370605 -8.532999992370605,-8.532999992370605 H247.4669952392578 z" fill="#01bafd" id="svg_10"/>
		</g>
	</g>
</g><g id="svg_11">
</g><g id="svg_12">
</g><g id="svg_13">
</g><g id="svg_14">
</g><g id="svg_15">
</g><g id="svg_16">
</g><g id="svg_17">
</g><g id="svg_18">
</g><g id="svg_19">
</g><g id="svg_20">
</g><g id="svg_21">
</g><g id="svg_22">
</g><g id="svg_23">
</g><g id="svg_24">
</g><g id="svg_25">
</g></g></svg>